<svg width="1181" height="134" viewBox="0 0 1181 134" fill="none" xmlns="http://www.w3.org/2000/svg">
<path d="M267.822 114.696H299.388L243.062 5.90567L189.054 114.696H220.474L228.004 98.6804H260.438L267.822 114.696ZM237.126 71.2664L243.062 57.848L248.854 71.2664H237.126Z" fill="white"/>
<path d="M401.618 12.9756H372.659L372.369 59.0022L309.528 1V114.696H338.487V72.2764L401.618 131V12.9756Z" fill="white"/>
<path d="M454.766 13.1199L440.721 12.9756H411.762V114.696H454.766C482.856 114.696 505.734 92.0433 505.734 64.0522C505.734 35.9168 482.856 13.1199 454.766 13.1199ZM440.721 43.131C463.598 40.3896 472.72 53.2309 472.72 64.0522C472.72 77.182 463.164 87.7148 440.721 84.9734V43.131Z" fill="white"/>
<path d="M643.673 12.9756H576.777V42.5538H595.601V114.696H625.139V42.5538H643.673V12.9756Z" fill="white"/>
<path d="M737.243 12.9756H708.284V49.4795H682.8V12.9756H653.841V114.84H682.8V78.3363H708.284V114.84H737.243V12.9756Z" fill="white"/>
<path d="M817.965 42.6981V12.9756H747.449V114.84H776.408L817.965 114.696V85.8391H776.408V78.4806H817.965V49.6238H776.408V42.6981H817.965Z" fill="white"/>
<path d="M927.295 119.024C946.843 119.024 962.77 103.153 962.77 83.6748V12.9756H933.811V83.6748C933.811 87.2819 930.915 90.1676 927.295 90.1676C923.676 90.1676 920.78 87.2819 920.78 83.6748V12.9756H891.82V83.6748C891.82 103.153 907.748 119.024 927.295 119.024Z" fill="white"/>
<path d="M1064.93 12.9756H1035.97L1035.68 59.0022L972.844 1V114.696H1001.8V72.2764L1064.93 131V12.9756Z" fill="white"/>
<path d="M1104.04 12.9756H1075.08V114.696H1104.04V12.9756Z" fill="white"/>
<path d="M1181 12.9756H1114.1V42.5538H1132.93V114.696H1162.47V42.5538H1181V12.9756Z" fill="white"/>
<path d="M116 12.5051V6.59014L111.228 10.0847L59.4707 47.9832L7.7894 9.59176L3.00115 6.03481L3.00044 11.9996L6.00044 12L3.00044 11.9997V11.9998V12.0003L3.00044 12.0023L3.00044 12.0101L3.00043 12.0408L3.00042 12.1584L3.00037 12.5874L3.00022 13.9712L3 16.8479V16.8498V118.974V126.182L8.11399 121.103L27.3855 101.964L28.2715 101.084V99.8352V57.5868L57.754 79.131L59.5252 80.4254L61.2956 79.1299L90.7285 57.5916V99.8609V101.11L91.6145 101.99L110.886 121.129L116 126.207V119V16.8736V12.5051Z" fill="white" stroke="white" stroke-width="6"/>
</svg>
