<svg width="117" height="128" viewBox="0 0 117 128" fill="none" xmlns="http://www.w3.org/2000/svg">
<path d="M47.7363 94.46C47.8163 94.6333 47.8563 94.8067 47.8563 94.98C47.8563 95.2867 47.7296 95.5467 47.4763 95.76C47.2363 95.9733 46.9563 96.08 46.6363 96.08C46.423 96.08 46.223 96.0267 46.0363 95.92C45.8496 95.8 45.703 95.62 45.5963 95.38L44.3963 92.7H37.3563L36.1563 95.38C36.0496 95.62 35.903 95.8 35.7163 95.92C35.5296 96.0267 35.323 96.08 35.0963 96.08C34.7896 96.08 34.5096 95.9733 34.2563 95.76C34.003 95.5467 33.8763 95.2867 33.8763 94.98C33.8763 94.8067 33.9163 94.6333 33.9963 94.46L39.5163 82.6C39.6363 82.3333 39.8163 82.1333 40.0563 82C40.3096 81.8533 40.5763 81.78 40.8563 81.78C41.1363 81.78 41.3963 81.8533 41.6363 82C41.8896 82.1333 42.0763 82.3333 42.1963 82.6L47.7363 94.46ZM38.2363 90.7H43.5163L40.8763 84.76L38.2363 90.7Z" fill="white"/>
<path d="M60.48 81.8C60.8534 81.8 61.1467 81.92 61.36 82.16C61.5867 82.3867 61.7 82.6933 61.7 83.08V94.82C61.7 95.2067 61.5867 95.52 61.36 95.76C61.1334 96 60.84 96.12 60.48 96.12C60.0534 96.12 59.7267 95.9667 59.5 95.66L52.2 86.16V94.82C52.2 95.2067 52.0934 95.52 51.88 95.76C51.6667 96 51.3734 96.12 51 96.12C50.6267 96.12 50.3334 96 50.12 95.76C49.9067 95.52 49.8 95.2067 49.8 94.82V83.08C49.8 82.6933 49.9134 82.3867 50.14 82.16C50.3667 81.92 50.6667 81.8 51.04 81.8C51.4534 81.8 51.7734 81.9533 52 82.26L59.28 91.72V83.08C59.28 82.6933 59.3867 82.3867 59.6 82.16C59.8267 81.92 60.12 81.8 60.48 81.8Z" fill="white"/>
<path d="M65.9814 96C65.5948 96 65.2881 95.8933 65.0614 95.68C64.8481 95.4667 64.7414 95.1667 64.7414 94.78V83.12C64.7414 82.7333 64.8481 82.4333 65.0614 82.22C65.2881 82.0067 65.5948 81.9 65.9814 81.9H69.9414C72.2481 81.9 74.0348 82.52 75.3014 83.76C76.5814 84.9867 77.2214 86.7133 77.2214 88.94C77.2214 91.18 76.5814 92.92 75.3014 94.16C74.0348 95.3867 72.2481 96 69.9414 96H65.9814ZM69.7814 93.9C73.0214 93.9 74.6414 92.2467 74.6414 88.94C74.6414 85.6467 73.0214 84 69.7814 84H67.3214V93.9H69.7814Z" fill="white"/>
<path d="M11.383 127.115C10.739 127.115 10.2177 126.931 9.819 126.563C9.43567 126.18 9.244 125.674 9.244 125.045V114.212H6.001C5.32633 114.212 4.82033 114.074 4.483 113.798C4.161 113.507 4 113.07 4 112.487C4 111.904 4.161 111.475 4.483 111.199C4.82033 110.923 5.32633 110.785 6.001 110.785H16.765C17.4397 110.785 17.938 110.923 18.26 111.199C18.5973 111.475 18.766 111.904 18.766 112.487C18.766 113.07 18.5973 113.507 18.26 113.798C17.938 114.074 17.4397 114.212 16.765 114.212H13.522V125.045C13.522 125.674 13.3227 126.18 12.924 126.563C12.5407 126.931 12.027 127.115 11.383 127.115Z" fill="white"/>
<path d="M32.9532 110.67C33.5819 110.67 34.0802 110.862 34.4482 111.245C34.8316 111.613 35.0232 112.111 35.0232 112.74V125.045C35.0232 125.674 34.8316 126.18 34.4482 126.563C34.0802 126.946 33.5819 127.138 32.9532 127.138C32.3246 127.138 31.8186 126.954 31.4352 126.586C31.0672 126.203 30.8832 125.689 30.8832 125.045V120.445H24.2592V125.045C24.2592 125.674 24.0676 126.18 23.6842 126.563C23.3162 126.946 22.8179 127.138 22.1892 127.138C21.5606 127.138 21.0546 126.954 20.6712 126.586C20.3032 126.203 20.1192 125.689 20.1192 125.045V112.74C20.1192 112.111 20.3032 111.613 20.6712 111.245C21.0546 110.862 21.5606 110.67 22.1892 110.67C22.8179 110.67 23.3162 110.862 23.6842 111.245C24.0676 111.613 24.2592 112.111 24.2592 112.74V117.087H30.8832V112.74C30.8832 112.111 31.0672 111.613 31.4352 111.245C31.8186 110.862 32.3246 110.67 32.9532 110.67Z" fill="white"/>
<path d="M39.9307 127C39.302 127 38.819 126.831 38.4817 126.494C38.1443 126.157 37.9757 125.674 37.9757 125.045V112.74C37.9757 112.111 38.1443 111.628 38.4817 111.291C38.819 110.954 39.302 110.785 39.9307 110.785H47.8887C48.548 110.785 49.0463 110.923 49.3837 111.199C49.721 111.475 49.8897 111.874 49.8897 112.395C49.8897 113.499 49.2227 114.051 47.8887 114.051H42.0927V117.133H47.4287C48.7627 117.133 49.4297 117.677 49.4297 118.766C49.4297 119.287 49.261 119.686 48.9237 119.962C48.5863 120.238 48.088 120.376 47.4287 120.376H42.0927V123.734H47.8887C49.2227 123.734 49.8897 124.286 49.8897 125.39C49.8897 125.911 49.721 126.31 49.3837 126.586C49.0463 126.862 48.548 127 47.8887 127H39.9307Z" fill="white"/>
<path d="M65.3644 127.207C63.0184 127.207 61.232 126.609 60.0054 125.413C58.794 124.217 58.1884 122.469 58.1884 120.169V112.74C58.1884 112.111 58.3724 111.613 58.7404 111.245C59.1237 110.862 59.6297 110.67 60.2584 110.67C60.887 110.67 61.3854 110.862 61.7534 111.245C62.1367 111.613 62.3284 112.111 62.3284 112.74V120.33C62.3284 121.495 62.589 122.392 63.1104 123.021C63.6317 123.65 64.383 123.964 65.3644 123.964C66.3457 123.964 67.097 123.65 67.6184 123.021C68.1397 122.392 68.4004 121.495 68.4004 120.33V112.74C68.4004 112.111 68.5844 111.613 68.9524 111.245C69.3357 110.862 69.8417 110.67 70.4704 110.67C71.099 110.67 71.605 110.862 71.9884 111.245C72.3717 111.613 72.5634 112.111 72.5634 112.74V120.169C72.5634 122.454 71.9424 124.202 70.7004 125.413C69.4737 126.609 67.695 127.207 65.3644 127.207Z" fill="white"/>
<path d="M87.8841 110.67C88.4667 110.67 88.9421 110.862 89.3101 111.245C89.6934 111.628 89.8851 112.127 89.8851 112.74V125.045C89.8851 125.674 89.701 126.18 89.3331 126.563C88.9651 126.946 88.4897 127.138 87.9071 127.138C87.217 127.138 86.6957 126.908 86.3431 126.448L79.3511 117.731V125.045C79.3511 125.674 79.1747 126.18 78.8221 126.563C78.4694 126.946 77.994 127.138 77.396 127.138C76.8134 127.138 76.3381 126.946 75.9701 126.563C75.6021 126.18 75.4181 125.674 75.4181 125.045V112.74C75.4181 112.127 75.6021 111.628 75.9701 111.245C76.3381 110.862 76.8134 110.67 77.396 110.67C78.0554 110.67 78.569 110.9 78.937 111.36L85.9291 120.054V112.74C85.9291 112.111 86.1054 111.613 86.4581 111.245C86.826 110.862 87.3014 110.67 87.8841 110.67Z" fill="white"/>
<path d="M94.9183 127.138C94.2743 127.138 93.7606 126.954 93.3773 126.586C93.0093 126.203 92.8253 125.689 92.8253 125.045V112.74C92.8253 112.111 93.0093 111.613 93.3773 111.245C93.7606 110.862 94.2743 110.67 94.9183 110.67C95.5776 110.67 96.0989 110.862 96.4823 111.245C96.8656 111.613 97.0573 112.111 97.0573 112.74V125.045C97.0573 125.689 96.8656 126.203 96.4823 126.586C96.0989 126.954 95.5776 127.138 94.9183 127.138Z" fill="white"/>
<path d="M105.786 127.115C105.142 127.115 104.621 126.931 104.222 126.563C103.839 126.18 103.647 125.674 103.647 125.045V114.212H100.404C99.7297 114.212 99.2236 114.074 98.8863 113.798C98.5643 113.507 98.4033 113.07 98.4033 112.487C98.4033 111.904 98.5643 111.475 98.8863 111.199C99.2236 110.923 99.7297 110.785 100.404 110.785H111.168C111.843 110.785 112.341 110.923 112.663 111.199C113.001 111.475 113.169 111.904 113.169 112.487C113.169 113.07 113.001 113.507 112.663 113.798C112.341 114.074 111.843 114.212 111.168 114.212H107.925V125.045C107.925 125.674 107.726 126.18 107.327 126.563C106.944 126.931 106.43 127.115 105.786 127.115Z" fill="white"/>
<path d="M114.429 0.631287C113.985 0.631287 113.593 0.761474 113.253 0.969772L113.123 1.04788L58.4036 38.1771L58.2991 38.2552L58.1946 38.2031L3.52774 1.04788L3.39708 0.969772C3.05737 0.761474 2.63927 0.631287 2.22117 0.631287C0.992992 0.631287 0 1.6207 0 2.84446V2.97464V106.343L21.0096 86.9709V38.2291L58.3513 63.5634L95.6408 38.2291V86.997L116.65 106.369V3.00068V2.87049C116.65 1.64674 115.657 0.631287 114.429 0.631287Z" fill="white"/>
</svg>
