<svg width="111" height="139" viewBox="0 0 111 139" fill="none" xmlns="http://www.w3.org/2000/svg">
<path d="M109 0.505142L55.5719 39.6274L55.476 39.7046L55.3802 39.6531L2.00044 0C2.00044 0 2 3.64078 2 4.84983V4.84785V106.974L21.2715 87.8352V39.6789L55.524 64.7088L89.7285 39.6789V87.8609L109 107V4.87358V0.505142Z" fill="white"/>
<path d="M44.6535 97.46C44.7335 97.6333 44.7735 97.8067 44.7735 97.98C44.7735 98.2867 44.6468 98.5467 44.3935 98.76C44.1535 98.9733 43.8735 99.08 43.5535 99.08C43.3402 99.08 43.1402 99.0267 42.9535 98.92C42.7669 98.8 42.6202 98.62 42.5135 98.38L41.3135 95.7H34.2735L33.0735 98.38C32.9668 98.62 32.8202 98.8 32.6335 98.92C32.4468 99.0267 32.2402 99.08 32.0135 99.08C31.7068 99.08 31.4268 98.9733 31.1735 98.76C30.9202 98.5467 30.7935 98.2867 30.7935 97.98C30.7935 97.8067 30.8335 97.6333 30.9135 97.46L36.4335 85.6C36.5535 85.3333 36.7335 85.1333 36.9735 85C37.2268 84.8533 37.4935 84.78 37.7735 84.78C38.0535 84.78 38.3135 84.8533 38.5535 85C38.8068 85.1333 38.9935 85.3333 39.1135 85.6L44.6535 97.46ZM35.1535 93.7H40.4335L37.7935 87.76L35.1535 93.7ZM57.3973 84.8C57.7706 84.8 58.0639 84.92 58.2773 85.16C58.5039 85.3867 58.6173 85.6933 58.6173 86.08V97.82C58.6173 98.2067 58.5039 98.52 58.2773 98.76C58.0506 99 57.7573 99.12 57.3973 99.12C56.9706 99.12 56.6439 98.9667 56.4173 98.66L49.1173 89.16V97.82C49.1173 98.2067 49.0106 98.52 48.7973 98.76C48.5839 99 48.2906 99.12 47.9173 99.12C47.5439 99.12 47.2506 99 47.0373 98.76C46.8239 98.52 46.7173 98.2067 46.7173 97.82V86.08C46.7173 85.6933 46.8306 85.3867 47.0573 85.16C47.2839 84.92 47.5839 84.8 47.9573 84.8C48.3706 84.8 48.6906 84.9533 48.9173 85.26L56.1973 94.72V86.08C56.1973 85.6933 56.3039 85.3867 56.5173 85.16C56.7439 84.92 57.0373 84.8 57.3973 84.8ZM62.8987 99C62.512 99 62.2053 98.8933 61.9787 98.68C61.7653 98.4667 61.6587 98.1667 61.6587 97.78V86.12C61.6587 85.7333 61.7653 85.4333 61.9787 85.22C62.2053 85.0067 62.512 84.9 62.8987 84.9H66.8587C69.1653 84.9 70.952 85.52 72.2187 86.76C73.4987 87.9867 74.1387 89.7133 74.1387 91.94C74.1387 94.18 73.4987 95.92 72.2187 97.16C70.952 98.3867 69.1653 99 66.8587 99H62.8987ZM66.6987 96.9C69.9387 96.9 71.5587 95.2467 71.5587 91.94C71.5587 88.6467 69.9387 87 66.6987 87H64.2387V96.9H66.6987ZM8.30023 130.115C7.65623 130.115 7.13489 129.931 6.73623 129.563C6.35289 129.18 6.16123 128.674 6.16123 128.045V117.212H2.91823C2.24356 117.212 1.73756 117.074 1.40023 116.798C1.07823 116.507 0.917227 116.07 0.917227 115.487C0.917227 114.904 1.07823 114.475 1.40023 114.199C1.73756 113.923 2.24356 113.785 2.91823 113.785H13.6822C14.3569 113.785 14.8552 113.923 15.1772 114.199C15.5146 114.475 15.6832 114.904 15.6832 115.487C15.6832 116.07 15.5146 116.507 15.1772 116.798C14.8552 117.074 14.3569 117.212 13.6822 117.212H10.4392V128.045C10.4392 128.674 10.2399 129.18 9.84123 129.563C9.45789 129.931 8.94423 130.115 8.30023 130.115ZM29.8705 113.67C30.4991 113.67 30.9975 113.862 31.3655 114.245C31.7488 114.613 31.9405 115.111 31.9405 115.74V128.045C31.9405 128.674 31.7488 129.18 31.3655 129.563C30.9975 129.946 30.4991 130.138 29.8705 130.138C29.2418 130.138 28.7358 129.954 28.3525 129.586C27.9845 129.203 27.8005 128.689 27.8005 128.045V123.445H21.1765V128.045C21.1765 128.674 20.9848 129.18 20.6015 129.563C20.2335 129.946 19.7351 130.138 19.1065 130.138C18.4778 130.138 17.9718 129.954 17.5885 129.586C17.2205 129.203 17.0365 128.689 17.0365 128.045V115.74C17.0365 115.111 17.2205 114.613 17.5885 114.245C17.9718 113.862 18.4778 113.67 19.1065 113.67C19.7351 113.67 20.2335 113.862 20.6015 114.245C20.9848 114.613 21.1765 115.111 21.1765 115.74V120.087H27.8005V115.74C27.8005 115.111 27.9845 114.613 28.3525 114.245C28.7358 113.862 29.2418 113.67 29.8705 113.67ZM36.8479 130C36.2192 130 35.7362 129.831 35.3989 129.494C35.0616 129.157 34.8929 128.674 34.8929 128.045V115.74C34.8929 115.111 35.0616 114.628 35.3989 114.291C35.7362 113.954 36.2192 113.785 36.8479 113.785H44.8059C45.4652 113.785 45.9636 113.923 46.3009 114.199C46.6382 114.475 46.8069 114.874 46.8069 115.395C46.8069 116.499 46.1399 117.051 44.8059 117.051H39.0099V120.133H44.3459C45.6799 120.133 46.3469 120.677 46.3469 121.766C46.3469 122.287 46.1782 122.686 45.8409 122.962C45.5036 123.238 45.0052 123.376 44.3459 123.376H39.0099V126.734H44.8059C46.1399 126.734 46.8069 127.286 46.8069 128.39C46.8069 128.911 46.6382 129.31 46.3009 129.586C45.9636 129.862 45.4652 130 44.8059 130H36.8479ZM62.2816 130.207C59.9356 130.207 58.1493 129.609 56.9226 128.413C55.7113 127.217 55.1056 125.469 55.1056 123.169V115.74C55.1056 115.111 55.2896 114.613 55.6576 114.245C56.0409 113.862 56.5469 113.67 57.1756 113.67C57.8043 113.67 58.3026 113.862 58.6706 114.245C59.0539 114.613 59.2456 115.111 59.2456 115.74V123.33C59.2456 124.495 59.5063 125.392 60.0276 126.021C60.5489 126.65 61.3003 126.964 62.2816 126.964C63.2629 126.964 64.0143 126.65 64.5356 126.021C65.0569 125.392 65.3176 124.495 65.3176 123.33V115.74C65.3176 115.111 65.5016 114.613 65.8696 114.245C66.2529 113.862 66.7589 113.67 67.3876 113.67C68.0163 113.67 68.5223 113.862 68.9056 114.245C69.2889 114.613 69.4806 115.111 69.4806 115.74V123.169C69.4806 125.454 68.8596 127.202 67.6176 128.413C66.3909 129.609 64.6123 130.207 62.2816 130.207ZM84.8013 113.67C85.3839 113.67 85.8593 113.862 86.2273 114.245C86.6106 114.628 86.8023 115.127 86.8023 115.74V128.045C86.8023 128.674 86.6183 129.18 86.2503 129.563C85.8823 129.946 85.4069 130.138 84.8243 130.138C84.1343 130.138 83.6129 129.908 83.2603 129.448L76.2683 120.731V128.045C76.2683 128.674 76.0919 129.18 75.7393 129.563C75.3866 129.946 74.9113 130.138 74.3133 130.138C73.7306 130.138 73.2553 129.946 72.8873 129.563C72.5193 129.18 72.3353 128.674 72.3353 128.045V115.74C72.3353 115.127 72.5193 114.628 72.8873 114.245C73.2553 113.862 73.7306 113.67 74.3133 113.67C74.9726 113.67 75.4863 113.9 75.8543 114.36L82.8463 123.054V115.74C82.8463 115.111 83.0226 114.613 83.3753 114.245C83.7433 113.862 84.2186 113.67 84.8013 113.67ZM91.8355 130.138C91.1915 130.138 90.6778 129.954 90.2945 129.586C89.9265 129.203 89.7425 128.689 89.7425 128.045V115.74C89.7425 115.111 89.9265 114.613 90.2945 114.245C90.6778 113.862 91.1915 113.67 91.8355 113.67C92.4948 113.67 93.0162 113.862 93.3995 114.245C93.7828 114.613 93.9745 115.111 93.9745 115.74V128.045C93.9745 128.689 93.7828 129.203 93.3995 129.586C93.0162 129.954 92.4948 130.138 91.8355 130.138ZM102.704 130.115C102.06 130.115 101.538 129.931 101.14 129.563C100.756 129.18 100.565 128.674 100.565 128.045V117.212H97.3215C96.6469 117.212 96.1409 117.074 95.8035 116.798C95.4815 116.507 95.3205 116.07 95.3205 115.487C95.3205 114.904 95.4815 114.475 95.8035 114.199C96.1409 113.923 96.6469 113.785 97.3215 113.785H108.086C108.76 113.785 109.259 113.923 109.581 114.199C109.918 114.475 110.087 114.904 110.087 115.487C110.087 116.07 109.918 116.507 109.581 116.798C109.259 117.074 108.76 117.212 108.086 117.212H104.843V128.045C104.843 128.674 104.643 129.18 104.245 129.563C103.861 129.931 103.348 130.115 102.704 130.115Z" fill="white"/>
</svg>
