<svg width="98" height="12" viewBox="0 0 98 12" fill="none" xmlns="http://www.w3.org/2000/svg">
<path d="M4.776 6.77195L1.44 1.20395L0 9.99995H2.052L2.652 7.34795L4.728 10.8399L6.804 7.34795L7.284 9.99995H9.54L7.98 1.20395L4.776 6.77195Z" fill="white"/>
<path d="M22.196 9.99995H24.812L20.144 0.951946L15.668 9.99995H18.272L18.896 8.66795H21.584L22.196 9.99995ZM19.652 6.38795L20.144 5.27195L20.624 6.38795H19.652Z" fill="white"/>
<path d="M33.2843 1.53995H30.8843L30.8603 5.36795L25.6523 0.543945V9.99995H28.0523V6.47195L33.2843 11.3559V1.53995Z" fill="white"/>
<path d="M37.689 1.55195L36.525 1.53995H34.125V9.99995H37.689C40.017 9.99995 41.913 8.11595 41.913 5.78795C41.913 3.44795 40.017 1.55195 37.689 1.55195ZM36.525 4.04795C38.421 3.81995 39.177 4.88795 39.177 5.78795C39.177 6.87995 38.385 7.75595 36.525 7.52795V4.04795Z" fill="white"/>
<path d="M53.3448 1.53995H47.8008V3.99995H49.3608V9.99995H51.8088V3.99995H53.3448V1.53995Z" fill="white"/>
<path d="M61.0995 1.53995H58.6995V4.57595H56.5875V1.53995H54.1875V10.0119H56.5875V6.97595H58.6995V10.0119H61.0995V1.53995Z" fill="white"/>
<path d="M67.7893 4.01195V1.53995H61.9453V10.0119H64.3453L67.7893 9.99995V7.59995H64.3453V6.98795H67.7893V4.58795H64.3453V4.01195H67.7893Z" fill="white"/>
<path d="M76.8502 10.3599C78.4702 10.3599 79.7902 9.03995 79.7902 7.41995V1.53995H77.3902V7.41995C77.3902 7.71995 77.1502 7.95995 76.8502 7.95995C76.5502 7.95995 76.3102 7.71995 76.3102 7.41995V1.53995H73.9102V7.41995C73.9102 9.03995 75.2302 10.3599 76.8502 10.3599Z" fill="white"/>
<path d="M88.257 1.53995H85.857L85.833 5.36795L80.625 0.543945V9.99995H83.025V6.47195L88.257 11.3559V1.53995Z" fill="white"/>
<path d="M91.4977 1.53995H89.0977V9.99995H91.4977V1.53995Z" fill="white"/>
<path d="M97.876 1.53995H92.332V3.99995H93.892V9.99995H96.34V3.99995H97.876V1.53995Z" fill="white"/>
</svg>
