<svg width="149" height="149" viewBox="0 0 149 149" fill="none" xmlns="http://www.w3.org/2000/svg">
<path d="M74.5 0C33.3547 0 0 33.3547 0 74.5C0 115.645 33.3547 149 74.5 149C115.645 149 149 115.645 149 74.5C149 33.3547 115.645 0 74.5 0ZM106.923 108.12C105.976 109.741 104.271 110.644 102.52 110.645C101.647 110.645 100.763 110.42 99.9544 109.948C86.5666 102.124 71.1005 100.867 60.4809 101.19C48.7174 101.547 40.0906 103.87 40.0049 103.893C37.2932 104.634 34.4909 103.038 33.747 100.327C33.0035 97.6159 34.5937 94.8153 37.304 94.0687C37.6928 93.9617 46.976 91.4402 59.8851 91.0145C67.4889 90.7636 74.809 91.2936 81.6394 92.5893C90.2905 94.2303 98.1821 97.111 105.095 101.151C107.525 102.571 108.343 105.691 106.923 108.12ZM116.395 88.4488C115.273 90.3689 113.253 91.4392 111.179 91.4395C110.145 91.4395 109.097 91.1737 108.14 90.6141C92.282 81.3463 73.9614 79.8576 61.3826 80.2398C47.4481 80.6638 37.2294 83.4145 37.1281 83.4424C33.9167 84.3187 30.5967 82.4299 29.7155 79.2182C28.8348 76.0065 30.7186 72.6896 33.9289 71.805C34.3895 71.6782 45.3855 68.6912 60.6767 68.1871C69.6842 67.8902 78.3548 68.5177 86.4454 70.0525C96.6929 71.9966 106.041 75.4087 114.229 80.1941C117.107 81.8756 118.077 85.5716 116.395 88.4488ZM122.217 70.5629C120.948 70.5629 119.664 70.2368 118.489 69.5504C80.7882 47.5174 31.883 60.616 31.3935 60.7512C27.4519 61.8372 23.3772 59.5224 22.2915 55.5811C21.2055 51.6399 23.5204 47.5648 27.4617 46.4791C28.0264 46.3234 41.5142 42.6598 60.2704 42.0414C71.3197 41.6776 81.9547 42.4469 91.8785 44.3294C104.448 46.714 115.915 50.8991 125.959 56.7692C129.488 58.8318 130.677 63.365 128.615 66.8945C127.238 69.2497 124.762 70.5629 122.217 70.5629Z" fill="#00D95F"/>
</svg>
